<?xml version="1.0" encoding="iso-8859-1"?>
<!-- Uploaded to: SVG Repo, www.svgrepo.com, Generator: SVG Repo Mixer Tools -->
<svg version="1.1" id="Layer_1" xmlns="http://www.w3.org/2000/svg" xmlns:xlink="http://www.w3.org/1999/xlink" 
	 viewBox="0 0 512 512" xml:space="preserve">
<g>
	<rect x="456.092" y="97.103" style="fill:#595E62;" width="47.08" height="141.241"/>
	<rect x="8.828" y="97.103" style="fill:#595E62;" width="47.08" height="141.241"/>
</g>
<rect x="55.908" y="20.598" style="fill:#7E8488;" width="400.184" height="47.08"/>
<path style="fill:#AFB6BB;" d="M55.908,67.678v29.425v141.241v182.437c0,38.959,31.662,70.621,70.621,70.621h258.943
	c38.959,0,70.621-31.662,70.621-70.621V238.345V97.103V67.678H55.908z M102.989,114.759h306.023V244.23H102.989V114.759z"/>
<rect x="102.989" y="114.759" style="fill:#00ABD5;" width="306.023" height="129.471"/>
<rect x="55.908" y="20.598" style="fill:#6F7478;" width="200.092" height="47.08"/>
<path style="fill:#989EA3;" d="M102.989,244.23V114.759H256v-47.08H55.908v29.425v141.241v182.437
	c0,38.959,31.662,70.621,70.621,70.621H256V244.23H102.989z"/>
<path style="fill:#00A2D4;" d="M142.159,114.759h-39.171V244.23h306.023v-20.22C288.177,213.552,188.231,171.485,142.159,114.759z"
	/>
<path d="M94.161,253.057h323.678V105.931H94.161V253.057z M111.816,123.586h288.368v111.816H111.816V123.586z"/>
<path d="M512,88.276h-47.08V11.77H47.08v76.506H0v158.897h47.08v173.609c0,43.808,35.64,79.448,79.448,79.448h258.943
	c43.808,0,79.448-35.64,79.448-79.448V247.172H512V88.276z M64.736,29.425h382.529v29.425H64.736V29.425z M17.655,105.931H47.08
	v123.586H17.655V105.931z M447.264,420.782c0,34.073-27.721,61.793-61.793,61.793H126.529c-34.072,0-61.793-27.72-61.793-61.793
	V76.506h382.529V420.782z M494.345,229.517H464.92V105.931h29.425V229.517z"/>
<g>
	<rect x="91.218" y="276.598" style="fill:#FFFFFF;" width="329.563" height="17.655"/>
	<path style="fill:#FFFFFF;" d="M132.414,459.034c-22.371,0-33.266-10.332-38.467-18.998c-5.512-9.188-5.671-18.251-5.671-19.255
		v-17.655h17.655v17.655c0.071,3.367,1.682,20.598,26.483,20.598V459.034z"/>
	<path style="fill:#FFFFFF;" d="M379.586,459.034v-17.655c24.801,0,26.412-17.23,26.484-20.685l-0.001-17.568h17.655v17.655
		c0,1.004-0.159,10.067-5.671,19.255C412.852,448.703,401.958,459.034,379.586,459.034z"/>
	<polygon style="fill:#FFFFFF;" points="147.126,185.379 129.471,185.379 129.471,141.241 185.379,141.241 185.379,158.897 
		147.126,158.897 	"/>
</g>
</svg>