<svg width="109" height="64" viewBox="0 0 109 64" fill="none" class="footer-logo" xmlns="http://www.w3.org/2000/svg">
<path fill="white" d="M58.3009 0H0.73848C0.330629 0 0 0.307527 0 0.68688V10.3225C0 10.7019 0.330629 11.0094 0.73848 11.0094H58.3009C58.7088 11.0094 59.0394 10.7019 59.0394 10.3225V0.68688C59.0394 0.307527 58.7088 0 58.3009 0Z" class="footer-logo-fil"></path>
<path fill="white" fill-rule="evenodd" clip-rule="evenodd" d="M62.1722 12.5239H73.9889C74.3666 12.5239 74.6758 12.833 74.6758 13.2108V32.9764L93.0523 12.5998H107.199C107.566 12.5998 107.595 12.8999 107.264 13.2668L85.4936 37.4072V37.8906L108.336 62.4946C108.687 62.8723 108.664 63.1814 108.287 63.1814H93.7238L74.6758 42.6642V62.5702C74.6758 62.9479 74.3666 63.257 73.9889 63.257H62.1722C61.7945 63.257 61.4854 62.9479 61.4854 62.5702V13.2108C61.4854 12.833 61.7945 12.5239 62.1722 12.5239Z" class="footer-logo-fil"></path>
<path fill="white" fill-rule="evenodd" clip-rule="evenodd" d="M29.3968 12.6823C45.4613 12.6823 58.4837 24.0304 58.4837 38.0286C58.4837 52.027 45.4613 63.3749 29.3968 63.3749C13.3326 63.3749 0.3102 52.027 0.3102 38.0286C0.3102 24.0304 13.3326 12.6823 29.3968 12.6823ZM29.397 23.7126C38.4704 23.7126 45.8257 30.122 45.8257 38.0286C45.8257 45.9352 38.4704 52.3446 29.397 52.3446C20.3237 52.3446 12.9682 45.9352 12.9682 38.0286C12.9682 30.122 20.3237 23.7126 29.397 23.7126Z" class="footer-logo-fil"></path>
<path fill="white" d="M22.9517 13.2107L22.9517 62.6109C22.9517 63.0162 23.3617 63.3448 23.8675 63.3448L34.763 63.3448C35.2688 63.3448 35.6788 63.0162 35.6788 62.6109L35.6788 13.2107C35.6788 12.8054 35.2688 12.4769 34.763 12.4769L23.8675 12.4769C23.3617 12.4769 22.9517 12.8054 22.9517 13.2107Z" class="footer-logo-fil"></path>
</svg>